<svg width="18" height="14" viewBox="0 0 18 14" fill="none" xmlns="http://www.w3.org/2000/svg">
<path d="M16.6667 0H1.11111C0.816426 0 0.533811 0.117063 0.325437 0.325437C0.117063 0.533811 0 0.816426 0 1.11111V12.2222C0 12.5169 0.117063 12.7995 0.325437 13.0079C0.533811 13.2163 0.816426 13.3333 1.11111 13.3333H16.6667C16.9614 13.3333 17.244 13.2163 17.4523 13.0079C17.6607 12.7995 17.7778 12.5169 17.7778 12.2222V1.11111C17.7778 0.816426 17.6607 0.533811 17.4523 0.325437C17.244 0.117063 16.9614 0 16.6667 0ZM15.8111 12.2222H2.03333L5.92222 8.2L5.12222 7.42778L1.11111 11.5778V1.95556L8.01667 8.82778C8.22485 9.03472 8.50646 9.15088 8.8 9.15088C9.09354 9.15088 9.37515 9.03472 9.58333 8.82778L16.6667 1.78333V11.5056L12.5778 7.41667L11.7944 8.2L15.8111 12.2222ZM1.83889 1.11111H15.7667L8.8 8.03889L1.83889 1.11111Z" fill="#00FF88"/>
</svg>
